<?xml version="1.0" encoding="UTF-8"?>
<!DOCTYPE svg PUBLIC "-//W3C//DTD SVG 1.1//EN" "http://www.w3.org/Graphics/SVG/1.1/DTD/svg11.dtd">
<!-- Creator: CorelDRAW 2018 (64 Bit Versão de avaliação) -->
<svg xmlns="http://www.w3.org/2000/svg" xml:space="preserve" width="3629px" height="2815px" version="1.1" style="shape-rendering:geometricPrecision; text-rendering:geometricPrecision; image-rendering:optimizeQuality; fill-rule:evenodd; clip-rule:evenodd"
viewBox="0 0 184.49 143.1"
 xmlns:xlink="http://www.w3.org/1999/xlink">
 <defs>
  <style type="text/css">
   <![CDATA[
    .fil0 {fill:white}
   ]]>
  </style>
 </defs>
 <g id="Camada_x0020_1">
  <metadata id="CorelCorpID_0Corel-Layer"/>
  <path class="fil0" d="M10.59 50.8l-7.46 2.58c-0.29,5.99 4.99,3.29 8.23,8.72 2.36,3.96 2.36,10.11 1.64,15.71 -5.24,1.72 -8.4,2.38 -12.63,5.07 1.58,3.41 -0.9,0.98 3.65,2.61 -0.08,2.61 -7.42,11.55 -2.06,27.64 3.1,9.32 10.96,9.77 20.66,12.94 17.02,5.56 32.72,10.81 49.8,16.3 7.09,2.27 17.37,-1.27 27.03,-3.62l72.7 -17.83c2.8,-0.65 5.17,-0.73 6.57,-2.7 -2.56,-3.78 -8.54,-3.65 -12.61,-6.1 -1.74,-23.51 8.2,-15.71 10.14,-22.91 -1.89,-2.42 -1.98,-1.26 -4.12,-2.98 13.21,-14.88 4.72,-29.37 3.93,-34.32 2.49,-0.43 6.97,-0.72 8.43,-2.87 -2.11,-4.06 -8.97,-3.58 -12.68,-6.7 -0.4,-4.75 -0.66,-10.38 1.34,-14.28 3.24,-6.32 6.85,-2.86 8.69,-8.03 -1.85,-3.52 -19.88,-7.34 -23.31,-8.45l-36.05 -10.86c-7.66,-2.62 -32.63,2.67 -40.99,3.93 -18.26,2.76 -36.9,4.93 -54.95,7.63 -12.54,1.87 -23.76,1.95 -20.27,25.64 1.33,9.01 3.59,8.28 4.32,12.88zm67.03 82.73l0.56 -21.25 -58.95 -19.46c-9.08,-2.98 -13.45,-3.77 -13.49,8.27 -0.07,16.53 5.41,14.44 30.53,21.65 6.19,1.78 37.95,11.44 41.35,10.79zm4.27 -21.16l-0.65 21.64 81.23 -19.9c0.72,-7.41 0.09,-10.49 1.51,-18.52 -8.96,0.92 -39.62,7.63 -51.35,10.34 -8.77,2.03 -24.38,4.16 -30.74,6.44zm19.26 -35.03l0.51 21.45c5.06,0.52 50,-13.54 61.77,-16.47 8.55,-2.12 10.17,-6.1 10.07,-16.17 -0.16,-16.26 -9.32,-9.21 -33.14,-1.64 -12.95,4.12 -26.57,8.61 -39.21,12.83zm-84.34 1.45c2.31,1.53 75.15,20.12 81.11,20.58l-0.33 -21.54 -82.27 -17.15c1.76,13.04 1.34,1.63 1.49,18.11zm66.37 -14.6l0.52 -21.1c-1.93,-1.25 -2.21,-1.24 -4.58,-1.99 -1.86,-0.58 -3.27,-1.03 -5.03,-1.61 -3.39,-1.14 -6.22,-2.03 -9.43,-3.12 -6.56,-2.22 -13.22,-4.46 -19.62,-6.42 -24.55,-7.5 -33.59,-15.02 -33.58,1.96 0,4.16 0.38,7.87 2.05,10.93 1.88,3.44 3.71,3.57 7.86,4.74 7.23,2.03 13.54,3.75 20.53,5.68 7.92,2.19 35.98,11.1 41.28,10.93zm3.71 0.44l81.06 -19.92c0.88,-7.66 -0.47,-10.41 1.72,-18.29 -4.57,0.09 -43.51,8.25 -51,9.89 -7.91,1.73 -16.16,3.55 -24.31,5.13 -7.1,1.38 -8.06,-3.04 -7.47,23.19z"/>
 </g>
</svg>
